<?xml version="1.0"?>
<svg width="1280" height="1160" xmlns="http://www.w3.org/2000/svg" xmlns:svg="http://www.w3.org/2000/svg" preserveAspectRatio="xMidYMid meet">
 <metadata>Created by potrace 1.15, written by Peter Selinger 2001-2017</metadata>
 <g class="layer">
  <title>Layer 1</title>
  <g fill="#000000" id="svg_1" transform="translate(0 1160) scale(0.1 -0.1)">
   <path d="m5215,10539c-254,-16 -562,-76 -815,-159c-484,-158 -954,-432 -1305,-761c-33,-31 -79,-73 -103,-94c-59,-52 -273,-299 -351,-404c-124,-168 -235,-348 -327,-531c-193,-385 -289,-700 -354,-1168c-26,-187 -29,-674 -4,-841c25,-171 54,-328 85,-453c197,-806 694,-1535 1377,-2020c586,-416 1256,-637 1982,-655c499,-12 997,83 1467,283c87,36 167,64 186,64c50,0 78,-25 268,-240c46,-52 109,-122 139,-155c74,-78 125,-136 240,-270c118,-137 137,-158 285,-319c129,-141 415,-459 480,-535c22,-25 141,-158 264,-296c124,-137 259,-288 301,-335c41,-47 77,-87 80,-90c3,-3 54,-59 112,-125c161,-183 231,-243 357,-305c177,-88 441,-104 644,-39c145,46 315,155 416,265c100,109 190,268 227,404c14,50 18,102 18,230c0,182 -8,224 -69,355c-52,112 -60,122 -583,705c-102,113 -233,259 -292,325c-198,221 -402,449 -484,540c-44,49 -99,110 -121,135c-21,25 -93,101 -160,170c-155,162 -263,282 -356,400c-42,52 -105,127 -141,165c-113,121 -198,225 -204,250c-8,33 4,65 65,164c124,204 278,557 346,791c114,396 168,832 146,1182c-42,667 -224,1233 -569,1768c-198,307 -474,610 -780,853c-161,129 -403,283 -587,375c-597,298 -1189,414 -1880,371zm438,-530c265,-16 492,-58 744,-139c643,-205 1198,-620 1575,-1175c274,-403 436,-824 503,-1310c9,-60 19,-202 22,-315c14,-507 -97,-1000 -327,-1446c-123,-238 -278,-464 -319,-464c-25,0 -54,35 -91,110c-119,238 -339,584 -488,769c-292,361 -526,547 -814,645c-154,53 -215,51 -350,-10c-219,-98 -339,-139 -513,-175c-279,-57 -609,2 -1005,182c-118,53 -187,57 -289,15c-350,-142 -730,-551 -1104,-1189c-67,-115 -130,-213 -140,-219c-29,-15 -63,15 -128,115c-114,175 -270,515 -333,722c-92,307 -126,543 -126,884c0,384 40,623 163,986c197,579 577,1090 1080,1453c158,114 373,239 510,298c384,165 727,247 1122,267c33,2 77,4 98,5c22,1 116,-3 210,-9z" fill="#ffffff" id="svg_2"/>
   <path d="m5127,9164c-219,-36 -458,-153 -639,-311c-204,-179 -366,-468 -413,-742c-20,-110 -19,-344 0,-457c79,-459 427,-855 870,-993c282,-87 595,-79 855,22c377,146 668,458 784,838c101,331 60,715 -106,1005c-100,175 -218,307 -374,416c-241,170 -467,239 -765,237c-74,-1 -169,-7 -212,-15z" fill="#ffffff" id="svg_3"/>
  </g>
 </g>
</svg>